<?xml version="1.0" encoding="UTF-8"?>
<svg width="134px" height="48px" viewBox="0 0 134 48" version="1.1" xmlns="http://www.w3.org/2000/svg" xmlns:xlink="http://www.w3.org/1999/xlink">
    <!-- Generator: Sketch 60 (88103) - https://sketch.com -->
    <title>Group 23</title>
    <desc>Created with Sketch.</desc>
    <defs>
        <polygon id="path-1" points="0.0332751954 0.0496938027 11.8183957 0.0496938027 11.8183957 12.7244881 0.0332751954 12.7244881"></polygon>
        <polygon id="path-3" points="0 48 134 48 134 0 0 0"></polygon>
    </defs>
    <g id="Page-1" stroke="none" stroke-width="1" fill="none" fill-rule="evenodd">
        <g id="Home" transform="translate(-120.000000, -47.000000)">
            <g id="Group-23" transform="translate(120.000000, 47.000000)">
                <path d="M85.2976792,14.2121128 C86.4158172,12.9595603 86.9749611,11.3937562 86.9749611,9.5148518 C86.9749611,7.61594295 86.4158172,6.03498389 85.2976792,4.7725808 C84.1795412,3.50972306 82.7420635,2.87867307 80.9847969,2.87867307 C79.2477512,2.87867307 77.8251021,3.50972306 76.7169997,4.7725808 C75.6085976,6.03498389 75.0546961,7.61594295 75.0546961,9.5148518 C75.0546961,11.3937562 75.6085976,12.9595603 76.7169997,14.2121128 C77.8251021,15.4646652 79.2477512,16.0908656 80.9847969,16.0908656 C82.7420635,16.0908656 84.1795412,15.4646652 85.2976792,14.2121128 M74.5006449,16.2727244 C72.8335483,14.4547427 72,12.2018154 72,9.5148518 C72,6.80788374 72.8335483,4.54525731 74.5006449,2.72712408 C76.1680411,0.908990843 78.3294251,0 80.9847969,0 C83.6603896,0 85.8319589,0.908990843 87.4990555,2.72712408 C89.1661521,4.54525731 90,6.80788374 90,9.5148518 C90,12.2018154 89.1661521,14.4547427 87.4990555,16.2727244 C85.8319589,18.0908576 83.6603896,19 80.9847969,19 C78.3294251,19 76.1680411,18.0908576 74.5006449,16.2727244" id="Fill-1" fill="#000000"></path>
                <path d="M96.8513838,15.8108775 C97.5313711,16.5739542 98.3887399,16.9553399 99.4239468,16.9553399 C100.458849,16.9553399 101.311498,16.55854 101.981284,15.7650929 C102.65107,14.9719509 102.986039,13.9543118 102.986039,12.7137016 C102.986039,11.472481 102.65107,10.4554524 101.981284,9.66185259 C101.311498,8.8682528 100.458849,8.47206336 99.4239468,8.47206336 C98.3887399,8.47206336 97.5313711,8.8583328 96.8513838,9.63132952 C96.1712442,10.4046315 95.8314028,11.432038 95.8314028,12.7137016 C95.8314028,14.0155105 96.1712442,15.0479533 96.8513838,15.8108775 L96.8513838,15.8108775 Z M95.9836615,17.6265422 L95.9836615,25 L93,25 L93,6.30507807 L94.9790586,6.30507807 L95.4050784,8.13585175 L95.5876366,8.13585175 L95.7400476,7.90738658 C95.800951,7.81566476 95.9582343,7.64778788 96.2120495,7.40360333 C96.4655603,7.15972401 96.7448027,6.94072099 97.0493201,6.74766258 C97.353533,6.55429893 97.7745283,6.38153836 98.3127628,6.22907563 C98.8505405,6.07600244 99.4339959,6 100.063281,6 C101.768122,6 103.183975,6.61549769 104.310081,7.84618783 C105.436795,9.07703059 106,10.6996369 106,12.7137016 C106,14.6867128 105.44182,16.2989413 104.325459,17.5503872 C103.20925,18.8015278 101.818976,19.4272507 100.154332,19.4272507 C99.2209859,19.4272507 98.4141671,19.2743301 97.7341797,18.969252 C97.0541924,18.6643266 96.6127944,18.3691685 96.4099858,18.0843883 L96.1054684,17.6265422 L95.9836615,17.6265422 Z" id="Fill-3" fill="#000000"></path>
                <path d="M110.037946,11.0000113 L116.022828,11.0000113 C115.799787,9.15677933 114.838037,8.23508978 113.136666,8.23508978 C111.39488,8.23508978 110.362024,9.15677933 110.037946,11.0000113 L110.037946,11.0000113 Z M118.362176,17.5292094 C118.260987,17.6471786 118.09872,17.78427 117.875831,17.941072 C117.653246,18.098021 117.136666,18.3136605 116.326699,18.5884316 C115.516276,18.8629086 114.635355,19 113.683481,19 C111.637672,19 110.012573,18.3973568 108.807422,17.1910409 C107.602575,15.9853133 107,14.4214123 107,12.5002206 C107,10.6175675 107.572036,9.06366897 108.716261,7.8383779 C109.860789,6.61264554 111.354313,6 113.19744,6 C115.020055,6 116.442929,6.56366331 117.465758,7.69084285 C118.488586,8.81861076 119,10.3036694 119,12.1471956 L118.969917,12.9116419 L109.916398,12.9116419 C109.997227,14.1273719 110.387093,15.0539155 111.085995,15.6912728 C111.784746,16.3286301 112.711399,16.646941 113.865803,16.646941 C114.513959,16.646941 115.121396,16.5589789 115.688723,16.3824664 C116.255745,16.2059539 116.660804,16.0195861 116.903749,15.8235101 L117.298781,15.5585942 L118.362176,17.5292094 Z" id="Fill-5" fill="#000000"></path>
                <g id="Group-9" transform="translate(122.000000, 6.000000)">
                    <mask id="mask-2" fill="white">
                        <use xlink:href="#path-1"></use>
                    </mask>
                    <g id="Clip-8"></g>
                    <path d="M0.0332751954,0.344377611 L1.92834718,0.344377611 L2.2834603,2.11292271 L2.46131304,2.11292271 C3.36938379,0.737535047 4.76125545,0.0496938027 6.63648375,0.0496938027 C8.23552941,0.0496938027 9.49886137,0.555624182 10.4267758,1.56748494 C11.3545422,2.57964053 11.8184994,3.93099945 11.8184994,5.6208246 L11.8184994,12.7244881 L8.91643439,12.7244881 L8.91643439,5.88587787 C8.91643439,4.90335282 8.65491238,4.0977265 8.13186837,3.46899892 C7.60867626,2.84027133 6.88334513,2.52568642 5.95543069,2.52568642 C5.04721185,2.52568642 4.33165446,2.8106408 3.80846236,3.38040214 C3.28571452,3.95045831 2.99457507,4.59879217 2.9351921,5.32584597 L2.9351921,12.7244881 L0.0332751954,12.7244881 L0.0332751954,0.344377611 Z" id="Fill-7" fill="#000000" mask="url(#mask-2)"></path>
                </g>
                <path d="M69,41.6968916 L68.7624707,41.9395235 C68.6632401,42.0404559 68.4307615,42.2276204 68.0644404,42.5001077 C67.6981194,42.7730496 67.3020886,43.0102257 66.8763481,43.2120905 C66.450459,43.4139554 65.8911732,43.5958156 65.1980451,43.7576712 C64.5050655,43.9192237 63.7724234,44 63.0001188,44 C60.3266883,44 58.1586203,43.0910019 56.4951722,41.2728542 C54.8318726,39.4547064 54,37.2020643 54,34.5149277 C54,31.807938 54.8318726,29.5452936 56.4951722,27.7271458 C58.1586203,25.9089981 60.3266883,25 63.0001188,25 C63.7724234,25 64.5050655,25.075472 65.1980451,25.2273253 C65.8911732,25.3787239 66.4556582,25.5655853 66.8913515,25.7879095 C67.3268962,26.0099305 67.7129742,26.2374074 68.0497341,26.4695823 C68.3863454,26.7020603 68.633679,26.8886186 68.7923289,27.0304696 L69,27.2727983 L67.3071392,29.6062167 C67.1883003,29.4851281 67.0201432,29.3234241 66.8022223,29.1214077 C66.5843014,28.9190881 66.1038949,28.6563001 65.3614486,28.3333466 C64.6188538,28.0099385 63.8515999,27.8482344 63.0593898,27.8482344 C61.3169138,27.8482344 59.8811908,28.4847453 58.752815,29.7576154 C57.6236965,31.0301824 57.0595086,32.6160037 57.0595086,34.5149277 C57.0595086,36.3939986 57.6236965,37.9645133 58.752815,39.2273811 C59.8811908,40.4897943 61.3169138,41.1214555 63.0593898,41.1214555 C63.8515999,41.1214555 64.6039989,40.9799076 65.3170326,40.6969634 C66.0296206,40.4143223 66.5348347,40.1213758 66.8316349,39.8182754 L67.3071392,39.3940864 L69,41.6968916 Z" id="Fill-10" fill="#000000"></path>
                <path d="M78.0156988,40.1485434 C78.6559908,39.6268058 78.9971648,38.9917369 79.0395359,38.2430411 L79.0395359,37.238722 C78.3671112,36.9234039 77.4747979,36.7657449 76.3622808,36.7657449 C74.0942455,36.7657449 72.9607792,37.4748412 72.9607792,38.892886 C72.9607792,39.4839227 73.2019322,39.9712324 73.6850257,40.3554063 C74.1679618,40.7395801 74.8191221,40.9316671 75.6375617,40.9316671 C76.5824845,40.9316671 77.3754069,40.6707244 78.0156988,40.1485434 L78.0156988,40.1485434 Z M82,42.7043339 L79.8581329,42.7043339 L79.4802583,41.0792785 L79.3229024,41.0792785 C78.4830411,42.3597595 77.023522,43 74.9448178,43 C73.412055,43 72.2047149,42.6307498 71.322955,41.8919539 C70.44088,41.1533058 70,40.2126709 70,39.070197 C70,37.8096635 70.5145962,36.8149487 71.5433162,36.0863482 C72.5721936,35.3575999 74.0627428,34.9930781 76.0157513,34.9930781 C77.0657356,34.9930781 78.0735062,35.1310851 79.0395359,35.4068037 L79.0395359,34.9930781 C79.0395359,33.2595674 77.8947286,32.3934031 75.6062165,32.3934031 C75.0183766,32.3934031 74.4253387,32.4669872 73.8266303,32.6145986 C73.2282369,32.76221 72.7820015,32.9151408 72.4880815,33.0727998 L72.047044,33.3087712 L70.976583,31.1229697 C72.2571669,30.374274 73.9578389,30 76.0785992,30 C78.0314502,30 79.5065631,30.4483013 80.5037803,31.3441652 C81.5013126,32.2404724 82,33.4764779 82,35.0523295 L82,42.7043339 Z" id="Fill-12" fill="#000000"></path>
                <path d="M88.8513838,39.8753136 C89.5315234,40.6432485 90.3888921,41.0272927 91.4239468,41.0272927 C92.4591537,41.0272927 93.3118024,40.6278867 93.9814362,39.8290747 C94.6512222,39.0307235 94.9863436,38.0065544 94.9863436,36.7577961 C94.9863436,35.5084234 94.6512222,34.4845614 93.9814362,33.6857494 C93.3118024,32.887091 92.4591537,32.4881458 91.4239468,32.4881458 C90.3888921,32.4881458 89.5315234,32.8771058 88.8513838,33.6550259 C88.1715487,34.4334067 87.8317073,35.4677147 87.8317073,36.7577961 C87.8317073,38.0681551 88.1715487,39.1072252 88.8513838,39.8753136 L88.8513838,39.8753136 Z M87.9838137,41.7027498 L87.9838137,48 L85,48 L85,30.3069282 L86.9790586,30.3069282 L87.4052307,32.1498797 L87.5877889,32.1498797 L87.7401998,31.919914 C87.8011033,31.8274361 87.9583865,31.6586103 88.2122018,31.412822 C88.4658648,31.1673409 88.744955,30.9467459 89.0494724,30.7525731 C89.3536852,30.5577859 89.7748328,30.3838906 90.3129151,30.2304265 C90.8506928,30.0765016 91.4341481,30 92.0634333,30 C93.768274,30 95.1841276,30.6193866 96.310233,31.8583133 C97.4369473,33.0970864 98,34.7305034 98,36.7577961 C98,38.7437657 97.4421241,40.366583 96.3254588,41.6262481 C95.2095548,42.885606 93.8191284,43.5154386 92.1546363,43.5154386 C91.2209859,43.5154386 90.4143193,43.36136 89.734332,43.0544319 C89.0543446,42.7475037 88.6130989,42.4504071 88.4101381,42.1637565 L88.1056207,41.7027498 L87.9838137,41.7027498 Z" id="Fill-14" fill="#000000"></path>
                <mask id="mask-4" fill="white">
                    <use xlink:href="#path-3"></use>
                </mask>
                <g id="Clip-17"></g>
                <path d="M100.363531,43 L103.603075,43 L103.603075,30.0242659 L100.363531,30.0242659 L100.363531,43 Z M100.578443,27.120443 C100.192759,26.7701735 100,26.3377056 100,25.8225761 C100,25.3077555 100.192759,24.8752877 100.578443,24.5248636 C100.964126,24.175212 101.432468,24 101.983303,24 C102.556456,24 103.035874,24.175212 103.421557,24.5248636 C103.80691,24.8752877 104,25.3077555 104,25.8225761 C104,26.3377056 103.80691,26.7701735 103.421557,27.120443 C103.035874,27.4704036 102.556456,27.6456156 101.983303,27.6456156 C101.432468,27.6456156 100.964126,27.4704036 100.578443,27.120443 L100.578443,27.120443 Z" id="Fill-16" fill="#000000" mask="url(#mask-4)"></path>
                <path d="M108.198612,30.169831 L108.198612,26 L111.071645,26 L111.071645,30.169831 L114.384224,30.169831 L114.384224,32.4673864 L111.071645,32.4673864 L111.071645,38.8228571 C111.071645,39.9364933 111.58963,40.4935352 112.625305,40.4935352 C112.859887,40.4935352 113.104291,40.4538424 113.358372,40.3743077 C113.612599,40.2947729 113.807888,40.2149397 113.944531,40.1354049 L114.149936,40.0161773 L115,42.0751284 C114.139967,42.6917095 113.153113,43 112.038853,43 C110.749096,43 109.78658,42.6320211 109.151598,41.8962124 C108.516323,41.1596577 108.198612,40.1556989 108.198612,38.8823963 L108.198612,32.4673864 L106,32.4673864 L106,30.169831 L108.198612,30.169831 Z" id="Fill-18" fill="#000000" mask="url(#mask-4)"></path>
                <path d="M124.015647,40.1485434 C124.655947,39.6268058 124.99744,38.9917369 125.039497,38.2430411 L125.039497,37.238722 C124.367379,36.9234039 123.474896,36.7657449 122.362207,36.7657449 C120.094457,36.7657449 118.960661,37.4748412 118.960661,38.892886 C118.960661,39.4839227 119.201974,39.9712324 119.684917,40.3554063 C120.168016,40.7395801 120.819028,40.9316671 121.637793,40.9316671 C122.582571,40.9316671 123.375346,40.6707244 124.015647,40.1485434 L124.015647,40.1485434 Z M128,42.7043339 L125.858262,42.7043339 L125.480225,41.0792785 L125.322867,41.0792785 C124.482995,42.3597595 123.023772,43 120.944725,43 C119.4121,43 118.204586,42.6307498 117.322815,41.8919539 C116.440886,41.1533058 116,40.2126709 116,39.070197 C116,37.8096635 116.514445,36.8149487 117.543336,36.0863482 C118.572227,35.3575999 120.062796,34.9930781 122.015673,34.9930781 C123.065671,34.9930781 124.073455,35.1310851 125.039497,35.4068037 L125.039497,34.9930781 C125.039497,33.2595674 123.894832,32.3934031 121.606133,32.3934031 C121.018442,32.3934031 120.425239,32.4669872 119.826838,32.6145986 C119.228122,32.76221 118.782038,32.9151408 118.488272,33.0727998 L118.047071,33.3087712 L116.976438,31.1229697 C118.257196,30.374274 119.957891,30 122.078679,30 C124.031398,30 125.50653,30.4483013 126.503761,31.3441652 C127.501306,32.2404724 128,33.4764779 128,35.0523295 L128,42.7043339 Z" id="Fill-19" fill="#000000" mask="url(#mask-4)"></path>
                <polygon id="Fill-20" fill="#000000" mask="url(#mask-4)" points="131 43 134 43 134 24 131 24"></polygon>
                <path d="M21.5,43 C9.64479908,43 0,33.3552348 0,21.4999244 C0,9.64476519 9.64479908,0 21.5,0 L21.5,11.9872359 C16.254697,11.9872359 11.987278,16.2546398 11.987278,21.4999244 C11.987278,26.7452091 16.254697,31.012613 21.5,31.012613 C26.745303,31.012613 31.012722,26.7452091 31.012722,21.4999244 L43,21.4999244 C43,33.3552348 33.3552009,43 21.5,43" id="Fill-21" fill="#5EAFD3" mask="url(#mask-4)"></path>
                <path d="M43,22 L43,9.73394811 C48.3673246,9.73394811 52.7338619,5.36728684 52.7338619,0 L65,0 C65,12.1309033 55.1308339,22 43,22" id="Fill-22" fill="#F39C11" mask="url(#mask-4)"></path>
            </g>
        </g>
    </g>
</svg>